<svg xmlns="http://www.w3.org/2000/svg" width="18" height="18" viewBox="0 0 18 18">
<g transform="translate(0.0000 0.0000) scale(1.0000)">
<path d="M6 11.5 A3 3 0 0 1 12 11.5 Z" fill="#000000"/>
<path d="M16.5000 8.5000 L16.5000 11.5000 C16.5000 12.6046 15.6046 13.5000 14.5000 13.5000 L3.5000 13.5000 C2.3954 13.5000 1.5000 12.6046 1.5000 11.5000 L1.5000 5.5000 C1.5000 4.3954 2.3954 3.5000 3.5000 3.5000 L14.5000 3.5000 C15.6046 3.5000 16.5000 4.3954 16.5000 5.5000 Z " fill="none" stroke="#000000" stroke-width="1.5000" stroke-linecap="round" stroke-linejoin="round"/>
<path d="M4.0000 11.5000 L14.0000 11.5000 M9.0000 13.5000 L9.0000 16.0000 M6.0000 16.0000 L12.0000 16.0000 " fill="none" stroke="#000000" stroke-width="1.5000" stroke-linecap="round" stroke-linejoin="round"/>
</g>
</svg>
